<svg width="34" height="34" viewBox="0 0 34 34" fill="none" xmlns="http://www.w3.org/2000/svg">
<path d="M8.49935 32.5834H4.24935C3.47018 32.5834 2.8034 32.3062 2.24902 31.7518C1.69463 31.1974 1.41696 30.5302 1.41602 29.7501V25.5001H4.24935V29.7501H8.49935V32.5834ZM25.4994 32.5834V29.7501H29.7494V25.5001H32.5827V29.7501C32.5827 30.5292 32.3055 31.1965 31.7511 31.7518C31.1967 32.3072 30.5295 32.5844 29.7494 32.5834H25.4994ZM16.9993 26.2084C14.166 26.2084 11.5985 25.3702 9.29693 23.6938C6.99532 22.0174 5.31279 19.7862 4.24935 17.0001C5.31185 14.214 6.99438 11.9827 9.29693 10.3063C11.5995 8.62994 14.167 7.79175 16.9993 7.79175C19.8317 7.79175 22.3997 8.62994 24.7032 10.3063C27.0067 11.9827 28.6887 14.214 29.7494 17.0001C28.6869 19.7862 27.0048 22.0174 24.7032 23.6938C22.4016 25.3702 19.8336 26.2084 16.9993 26.2084ZM16.9993 21.9584C18.3688 21.9584 19.5375 21.4744 20.5056 20.5063C21.4737 19.5383 21.9577 18.3695 21.9577 17.0001C21.9577 15.6306 21.4737 14.4619 20.5056 13.4938C19.5375 12.5258 18.3688 12.0417 16.9993 12.0417C15.6299 12.0417 14.4612 12.5258 13.4931 13.4938C12.525 14.4619 12.041 15.6306 12.041 17.0001C12.041 18.3695 12.525 19.5383 13.4931 20.5063C14.4612 21.4744 15.6299 21.9584 16.9993 21.9584ZM16.9993 19.1251C16.4091 19.1251 15.9076 18.9187 15.4948 18.506C15.0821 18.0933 14.8753 17.5913 14.8743 17.0001C14.8734 16.4089 15.0802 15.9074 15.4948 15.4956C15.9095 15.0838 16.411 14.877 16.9993 14.8751C17.5877 14.8732 18.0897 15.08 18.5053 15.4956C18.9208 15.9111 19.1272 16.4126 19.1243 17.0001C19.1215 17.5875 18.9152 18.0895 18.5053 18.506C18.0954 18.9225 17.5934 19.1289 16.9993 19.1251ZM1.41602 8.50008V4.25008C1.41602 3.47091 1.69368 2.80414 2.24902 2.24975C2.80435 1.69536 3.47113 1.41769 4.24935 1.41675H8.49935V4.25008H4.24935V8.50008H1.41602ZM29.7494 8.50008V4.25008H25.4994V1.41675H29.7494C30.5285 1.41675 31.1958 1.69441 31.7511 2.24975C32.3064 2.80508 32.5836 3.47186 32.5827 4.25008V8.50008H29.7494Z" fill="#393636"/>
</svg>
