<svg width="37" height="37" viewBox="0 0 37 37" fill="none" xmlns="http://www.w3.org/2000/svg">
<path d="M18.4997 33.9166C16.367 33.9166 14.3629 33.5116 12.4872 32.7018C10.6115 31.8919 8.97989 30.7937 7.59239 29.4072C6.20489 28.0207 5.1067 26.3891 4.29784 24.5124C3.48898 22.6357 3.08404 20.6315 3.08301 18.4999C3.08198 16.3683 3.48693 14.3641 4.29784 12.4874C5.10876 10.6107 6.20694 8.9791 7.59239 7.59263C8.97783 6.20616 10.6094 5.10797 12.4872 4.29809C14.3649 3.4882 16.3691 3.08325 18.4997 3.08325C20.6303 3.08325 22.6344 3.4882 24.5122 4.29809C26.3899 5.10797 28.0215 6.20616 29.407 7.59263C30.7924 8.9791 31.8911 10.6107 32.7031 12.4874C33.515 14.3641 33.9194 16.3683 33.9163 18.4999C33.9133 20.6315 33.5083 22.6357 32.7015 24.5124C31.8947 26.3891 30.7965 28.0207 29.407 29.4072C28.0174 30.7937 26.3858 31.8924 24.5122 32.7033C22.6385 33.5142 20.6344 33.9186 18.4997 33.9166ZM20.0413 30.7176C23.099 30.3322 25.6623 28.9894 27.7312 26.6893C29.8001 24.3891 30.834 21.6593 30.833 18.4999C30.832 15.3405 29.7975 12.6108 27.7296 10.3106C25.6617 8.01042 23.099 6.66763 20.0413 6.28221V30.7176Z" fill="#393636"/>
</svg>
