<svg width="39" height="39" viewBox="0 0 39 39" fill="none" xmlns="http://www.w3.org/2000/svg">
<g clip-path="url(#clip0_140_1742)">
<path d="M33.8417 25.7814C33.4534 25.1436 32.9681 24.7345 32.3857 24.5541C31.1778 24.1676 29.8296 24.1938 29.0161 25.0741C28.1068 26.2787 28.084 28.0838 29.0161 29.1301C30.4378 30.4722 32.9488 29.8089 33.8417 28.4853V25.7814ZM37.0448 15.0072C38.3483 16.1997 39 17.8914 39 20.0823V32.7285C38.9788 33.0779 38.692 33.3479 38.376 33.3525H34.4657C34.1163 33.3313 33.8462 33.0444 33.8417 32.7285V32.3541C32.5363 33.3447 31.0258 33.8011 29.5154 33.8101C27.8014 33.7599 26.3113 33.1534 25.1475 32.0837C23.7143 30.6495 23.162 28.8861 23.1508 27.071C23.2072 25.0852 23.7807 23.2979 25.1683 22.0167C26.4484 20.9339 27.9623 20.4251 29.5155 20.4151C31.2349 20.4151 32.677 20.8727 33.8418 21.7879V20.5815C33.8418 18.6679 32.8434 17.7112 30.8466 17.7112C29.2936 17.7112 27.8792 18.3629 26.6035 19.6663C26.2648 19.9661 25.7873 19.8485 25.6051 19.4999L24.0659 16.8376C23.9273 16.5602 23.9689 16.3106 24.1907 16.0888C25.1337 15.1459 26.2291 14.4317 27.4771 13.9464C30.5697 12.8734 34.6975 12.9326 37.0448 15.0072ZM11.4612 12.9272L8.71566 22.7446H14.2484L11.4612 12.9272ZM22.901 32.2709C22.9565 32.4373 22.9842 32.5482 22.9843 32.6037C22.9726 32.9737 22.6887 33.2234 22.3603 33.2276H17.4516C17.1465 33.2276 16.9524 33.0751 16.8692 32.77L15.4964 27.9445H7.4677L6.09493 32.77C6.01173 33.0751 5.80373 33.2276 5.47093 33.2276H0.645393C0.126726 33.1845 -0.0694115 32.8661 0.021426 32.4373L8.1749 5.6473C8.28583 5.34223 8.49383 5.1897 8.7989 5.1897H14.1653C14.4703 5.1897 14.6783 5.34223 14.7892 5.6473L22.901 32.2709Z" fill="#393636"/>
</g>
<defs>
<clipPath id="clip0_140_1742">
<rect width="39" height="39" fill="white"/>
</clipPath>
</defs>
</svg>
