<svg width="31" height="31" viewBox="0 0 31 31" fill="none" xmlns="http://www.w3.org/2000/svg">
<g clip-path="url(#clip0_135_1450)">
<path d="M22.9396 2.58325H2.58549V22.9373L13.0299 12.4929L11.6272 11.0902L5.16882 17.5485V5.16659H20.3562L22.9396 2.58325ZM0.753906 28.423L28.4085 0.768461L28.4046 0.762003L28.4098 0.756836L30.2349 2.58325L28.4188 4.39934V28.4166H4.40157L2.57516 30.243L0.753906 28.423ZM20.6688 13.8853C20.1586 13.8853 19.6742 13.7781 19.2351 13.5844L16.6776 16.1419L25.8355 25.2985V6.98267L23.9187 8.8995C24.1572 9.44031 24.2571 10.0321 24.2092 10.6213C24.1612 11.2104 23.9671 11.7783 23.6442 12.2734C23.3213 12.7686 22.88 13.1753 22.3602 13.4568C21.8404 13.7382 21.2599 13.8855 20.6688 13.8853Z" fill="#393636"/>
</g>
<defs>
<clipPath id="clip0_135_1450">
<rect width="31" height="31" fill="white"/>
</clipPath>
</defs>
</svg>
