<svg width="63" height="70" viewBox="0 0 63 70" fill="none" xmlns="http://www.w3.org/2000/svg">
<path d="M25.8275 25.8244C28.7379 22.9143 32.6555 21.234 36.7699 21.1313C40.8844 21.0286 44.881 22.5113 47.9329 25.2726L48.5136 25.8244L57.5868 34.9008C60.5418 37.861 62.2237 41.8584 62.2741 46.0407C62.3244 50.2231 60.7393 54.2598 57.8564 57.2903C54.9736 60.3209 51.0211 62.1056 46.8414 62.2641C42.6617 62.4225 38.5854 60.9423 35.4814 58.1388L34.9039 57.5869L28.0958 50.7788C27.5204 50.2015 27.1863 49.4267 27.1614 48.612C27.1366 47.7972 27.4227 47.0036 27.9618 46.3922C28.501 45.7808 29.2526 45.3975 30.064 45.3202C30.8755 45.2429 31.686 45.4774 32.3308 45.976L32.6324 46.2423L39.4405 53.0503C41.2053 54.8255 43.5922 55.8432 46.0949 55.8877C48.5977 55.9322 51.0193 55 52.8461 53.2888C54.673 51.5776 55.7613 49.222 55.8802 46.7217C55.9992 44.2214 55.1394 41.7731 53.4833 39.8962L53.0502 39.4374L43.977 30.3642C43.0833 29.4703 42.0221 28.7612 40.8543 28.2774C39.6864 27.7936 38.4347 27.5445 37.1706 27.5445C35.9065 27.5445 34.6547 27.7936 33.4869 28.2774C32.319 28.7612 31.2579 29.4703 30.3641 30.3642C29.7621 30.9658 28.9457 31.3036 28.0947 31.3033C27.2436 31.303 26.4275 30.9646 25.8259 30.3626C25.2243 29.7606 24.8865 28.9443 24.8868 28.0932C24.8871 27.2421 25.2255 26.426 25.8275 25.8244ZM5.40967 5.4066C8.32005 2.49643 12.2376 0.81621 16.3521 0.713497C20.4666 0.610785 24.4631 2.09343 27.5151 4.85477L28.0958 5.4066L34.9007 12.2179C35.4761 12.7953 35.8102 13.57 35.835 14.3847C35.8599 15.1995 35.5737 15.9932 35.0346 16.6046C34.4955 17.216 33.7439 17.5992 32.9324 17.6765C32.121 17.7538 31.3105 17.5194 30.6657 17.0208L30.3641 16.7545L23.5592 9.9496C21.7913 8.19322 19.4111 7.191 16.9194 7.15377C14.4276 7.11655 12.0185 8.04722 10.199 9.75C8.37939 11.4528 7.29118 13.7949 7.16327 16.2837C7.03536 18.7724 7.87772 21.2138 9.51313 23.0941L9.94626 23.5561L19.0226 32.6325C20.8276 34.4369 23.2753 35.4506 25.8275 35.4506C28.3797 35.4506 30.8274 34.4369 32.6324 32.6325C32.9303 32.3344 33.2839 32.0979 33.6732 31.9365C34.0625 31.7751 34.4797 31.692 34.9011 31.6918C35.3226 31.6917 35.7399 31.7745 36.1293 31.9357C36.5186 32.0968 36.8725 32.333 37.1706 32.6309C37.4687 32.9288 37.7052 33.2825 37.8666 33.6717C38.028 34.061 38.1111 34.4783 38.1113 34.8997C38.1114 35.3211 38.0286 35.7384 37.8674 36.1278C37.7063 36.5172 37.47 36.871 37.1722 37.1691C34.2618 40.0793 30.3442 41.7595 26.2297 41.8622C22.1153 41.9649 18.1187 40.4823 15.0668 37.7209L14.4828 37.1691L5.40967 28.0927C2.40233 25.0845 0.712891 21.0049 0.712891 16.7513C0.712891 12.4976 2.40233 8.41486 5.40967 5.4066Z" fill="black"/>
</svg>
