<svg width="27" height="31" viewBox="0 0 27 31" fill="none" xmlns="http://www.w3.org/2000/svg">
<path d="M11.0148 11.0153C12.2912 9.739 14.0094 9.00209 15.8139 8.95704C17.6184 8.91199 19.3712 9.56225 20.7097 10.7733L20.9644 11.0153L24.9437 14.9961C26.2397 16.2944 26.9774 18.0475 26.9995 19.8818C27.0216 21.7161 26.3264 23.4865 25.062 24.8156C23.7976 26.1448 22.0642 26.9275 20.231 26.997C18.3979 27.0665 16.6101 26.4173 15.2488 25.1878L14.9955 24.9457L12.0096 21.9598C11.7572 21.7066 11.6107 21.3668 11.5998 21.0095C11.5889 20.6522 11.7144 20.3041 11.9508 20.0359C12.1873 19.7678 12.5169 19.5997 12.8728 19.5658C13.2287 19.5319 13.5842 19.6347 13.867 19.8534L13.9992 19.9702L16.9851 22.9561C17.7591 23.7346 18.806 24.181 19.9036 24.2005C21.0013 24.22 22.0634 23.8112 22.8646 23.0607C23.6658 22.3102 24.1431 21.277 24.1953 20.1805C24.2475 19.0839 23.8704 18.0101 23.144 17.1869L22.9541 16.9857L18.9748 13.0064C18.5828 12.6143 18.1174 12.3033 17.6052 12.0911C17.093 11.879 16.544 11.7697 15.9896 11.7697C15.4352 11.7697 14.8862 11.879 14.374 12.0911C13.8618 12.3033 13.3964 12.6143 13.0044 13.0064C12.7404 13.2702 12.3824 13.4184 12.0091 13.4183C11.6358 13.4181 11.2779 13.2697 11.0141 13.0057C10.7502 12.7417 10.6021 12.3836 10.6022 12.0104C10.6023 11.6371 10.7507 11.2792 11.0148 11.0153ZM2.05991 2.06049C3.33635 0.78415 5.05452 0.0472411 6.85905 0.0021935C8.66357 -0.0428541 10.4164 0.607406 11.7549 1.81847L12.0096 2.06049L14.9941 5.04779C15.2464 5.30101 15.3929 5.64079 15.4039 5.99813C15.4148 6.35546 15.2893 6.70355 15.0528 6.9717C14.8164 7.23985 14.4867 7.40794 14.1308 7.44184C13.775 7.47575 13.4195 7.37291 13.1367 7.15423L13.0044 7.03744L10.0199 4.05296C9.24457 3.28265 8.20067 2.8431 7.10783 2.82677C6.01499 2.81044 4.95842 3.21862 4.16039 3.96542C3.36237 4.71222 2.8851 5.73944 2.82901 6.83096C2.77291 7.92248 3.14235 8.99321 3.85961 9.81789L4.04957 10.0205L8.03028 14.0012C8.8219 14.7926 9.89542 15.2372 11.0148 15.2372C12.1341 15.2372 13.2076 14.7926 13.9992 14.0012C14.1299 13.8705 14.285 13.7668 14.4557 13.696C14.6265 13.6252 14.8095 13.5887 14.9943 13.5887C15.1791 13.5886 15.3621 13.6249 15.5329 13.6956C15.7037 13.7663 15.8589 13.8699 15.9896 14.0005C16.1203 14.1312 16.2241 14.2863 16.2948 14.457C16.3656 14.6277 16.4021 14.8107 16.4022 14.9956C16.4022 15.1804 16.3659 15.3634 16.2952 15.5342C16.2246 15.705 16.1209 15.8601 15.9903 15.9909C14.7139 17.2672 12.9957 18.0041 11.1912 18.0492C9.38665 18.0942 7.63384 17.444 6.29531 16.2329L6.03922 15.9909L2.05991 12.0102C0.740952 10.6908 0 8.90161 0 7.03603C0 5.17046 0.740952 3.37985 2.05991 2.06049Z" fill="black"/>
</svg>
