<svg width="38" height="38" viewBox="0 0 38 38" fill="none" xmlns="http://www.w3.org/2000/svg">
<path d="M19 6.33333L15.6908 9.6425L19 12.9517M6.76083 4.75L4.75 6.76083L12.2392 14.25H4.75V23.75H11.0833L19 31.6667V21.0108L25.7292 27.7558C24.6683 28.5633 23.4808 29.2283 22.1667 29.6083V32.8858C24.3517 32.3792 26.3308 31.3817 27.9933 30.02L31.2392 33.25L33.25 31.2392L19 16.9892M30.0833 19C30.0833 20.4883 29.7667 21.8817 29.2283 23.18L31.6192 25.5708C32.6887 23.5456 33.2484 21.2903 33.25 19C33.25 12.2233 28.5 6.555 22.1667 5.11417V8.37583C26.7425 9.7375 30.0833 13.9808 30.0833 19ZM26.125 19C26.125 16.1975 24.5417 13.7908 22.1667 12.6192V16.1183L26.0458 19.9975C26.125 19.6808 26.125 19.3325 26.125 19Z" fill="black"/>
</svg>
