<svg width="35" height="35" viewBox="0 0 35 35" fill="none" xmlns="http://www.w3.org/2000/svg">
<path d="M13.8542 2.91675C15.8715 2.91675 17.7674 3.2998 19.5417 4.06591C21.316 4.83203 22.8594 5.87085 24.1719 7.18237C25.4844 8.4939 26.5237 10.0373 27.2898 11.8126C28.0559 13.5879 28.4385 15.4837 28.4375 17.5001C28.4365 19.5165 28.0535 21.4123 27.2883 23.1876C26.5232 24.9629 25.4844 26.5063 24.1719 27.8178C22.8594 29.1293 21.316 30.1686 19.5417 30.9357C17.7674 31.7028 15.8715 32.0854 13.8542 32.0834C12.566 32.0834 11.3079 31.9196 10.08 31.592C8.85208 31.2643 7.67958 30.7719 6.5625 30.1147C8.82292 28.8022 10.6035 27.0279 11.9044 24.7917C13.2052 22.5556 13.8551 20.1251 13.8542 17.5001C13.8532 14.8751 13.2028 12.4445 11.9029 10.2084C10.6031 7.9723 8.82292 6.198 6.5625 4.8855C7.68056 4.22925 8.85354 3.7373 10.0815 3.40966C11.3094 3.08203 12.5669 2.91772 13.8542 2.91675Z" fill="#393636"/>
</svg>
