<svg width="35" height="35" viewBox="0 0 35 35" fill="none" xmlns="http://www.w3.org/2000/svg">
<path d="M21.9713 3.27681C22.1177 2.86735 22.4207 2.53275 22.8136 2.34653C23.2066 2.16031 23.6574 2.13771 24.067 2.28368C24.5351 2.48056 24.0692 2.28368 24.0692 2.28368L24.0779 2.28587L24.0889 2.29243L24.1217 2.30337C24.2631 2.35452 24.4018 2.41293 24.5373 2.47837C24.7954 2.60087 25.1498 2.78025 25.5654 3.03181C26.3945 3.53493 27.4817 4.33556 28.5623 5.53212C30.7498 7.95368 32.8126 11.8999 32.8126 18.0446C32.8126 18.4797 32.6397 18.897 32.3321 19.2047C32.0244 19.5124 31.6071 19.6852 31.172 19.6852C30.7369 19.6852 30.3196 19.5124 30.0119 19.2047C29.7042 18.897 29.5313 18.4797 29.5313 18.0446C29.5313 12.7071 27.766 9.54618 26.1276 7.73056C25.4671 6.99409 24.7039 6.35679 23.8613 5.83837C23.5809 5.66412 23.2876 5.51129 22.9842 5.38118L22.9535 5.37025C22.5462 5.2221 22.214 4.91879 22.0296 4.52655C21.8452 4.13431 21.8256 3.68502 21.9713 3.27681ZM15.7457 7.6015C15.6248 7.29548 15.4146 7.03291 15.1425 6.84787C14.8704 6.66284 14.549 6.5639 14.2199 6.5639C13.8909 6.5639 13.5695 6.66284 13.2974 6.84787C13.0253 7.03291 12.8151 7.29548 12.6942 7.6015L4.49104 28.3827C4.34435 28.7847 4.36047 29.228 4.53597 29.6182C4.71146 30.0084 5.03244 30.3146 5.43047 30.4715C5.82849 30.6284 6.27208 30.6237 6.66664 30.4582C7.06121 30.2928 7.37553 29.9797 7.5426 29.5859L9.50698 24.6093H18.9307L20.8951 29.5859C21.0546 29.9908 21.3685 30.3158 21.7677 30.4893C22.1668 30.6629 22.6186 30.6707 23.0235 30.5112C23.4285 30.3516 23.7535 30.0378 23.927 29.6386C24.1005 29.2394 24.1084 28.7877 23.9489 28.3827L15.7457 7.6015ZM17.6357 21.3281H10.802L14.2189 12.6721L17.6357 21.3281ZM23.472 8.03681C23.1367 7.77315 22.7119 7.65043 22.2877 7.69466C21.8634 7.7389 21.4731 7.94661 21.1994 8.27377C20.9258 8.60093 20.7903 9.02181 20.8217 9.44719C20.853 9.87256 21.0489 10.269 21.3676 10.5524L21.3807 10.5656L21.4551 10.6312C21.5266 10.6968 21.6279 10.796 21.7592 10.9287C22.0217 11.1977 22.3717 11.5937 22.7217 12.0881C23.437 13.1009 24.0626 14.4134 24.0626 15.8593C24.0626 16.2944 24.2355 16.7117 24.5431 17.0194C24.8508 17.3271 25.2681 17.4999 25.7032 17.4999C26.1383 17.4999 26.5556 17.3271 26.8633 17.0194C27.171 16.7117 27.3438 16.2944 27.3438 15.8593C27.3438 13.4793 26.3288 11.5084 25.4035 10.1981C24.8587 9.43179 24.2332 8.72628 23.5376 8.09368L23.4938 8.0565L23.4807 8.04556L23.4764 8.04118L23.472 8.03681Z" fill="#393636"/>
</svg>
