<svg width="24" height="25" viewBox="0 0 24 25" fill="none" xmlns="http://www.w3.org/2000/svg">
<g clip-path="url(#clip0_140_1925)">
<path d="M11 17.5H13V11.5H11V17.5ZM12 9.5C12.2833 9.5 12.521 9.404 12.713 9.212C12.905 9.02 13.0007 8.78267 13 8.5C12.9993 8.21733 12.9033 7.98 12.712 7.788C12.5207 7.596 12.2833 7.5 12 7.5C11.7167 7.5 11.4793 7.596 11.288 7.788C11.0967 7.98 11.0007 8.21733 11 8.5C10.9993 8.78267 11.0953 9.02033 11.288 9.213C11.4807 9.40567 11.718 9.50133 12 9.5ZM12 22.5C10.6167 22.5 9.31667 22.2373 8.1 21.712C6.88334 21.1867 5.825 20.4743 4.925 19.575C4.025 18.6757 3.31267 17.6173 2.788 16.4C2.26333 15.1827 2.00067 13.8827 2 12.5C1.99933 11.1173 2.262 9.81733 2.788 8.6C3.314 7.38267 4.02633 6.32433 4.925 5.425C5.82367 4.52567 6.882 3.81333 8.1 3.288C9.318 2.76267 10.618 2.5 12 2.5C13.382 2.5 14.682 2.76267 15.9 3.288C17.118 3.81333 18.1763 4.52567 19.075 5.425C19.9737 6.32433 20.6863 7.38267 21.213 8.6C21.7397 9.81733 22.002 11.1173 22 12.5C21.998 13.8827 21.7353 15.1827 21.212 16.4C20.6887 17.6173 19.9763 18.6757 19.075 19.575C18.1737 20.4743 17.1153 21.187 15.9 21.713C14.6847 22.239 13.3847 22.5013 12 22.5ZM12 20.5C14.2333 20.5 16.125 19.725 17.675 18.175C19.225 16.625 20 14.7333 20 12.5C20 10.2667 19.225 8.375 17.675 6.825C16.125 5.275 14.2333 4.5 12 4.5C9.76667 4.5 7.875 5.275 6.325 6.825C4.775 8.375 4 10.2667 4 12.5C4 14.7333 4.775 16.625 6.325 18.175C7.875 19.725 9.76667 20.5 12 20.5Z" fill="#120505"/>
<path d="M12 21.75C10.0772 21.75 8.23311 20.9862 6.87348 19.6265C5.51384 18.2669 4.75 16.4228 4.75 14.5C4.75 12.5772 5.51384 10.7331 6.87348 9.37348C8.23311 8.01384 10.0772 7.25 12 7.25H14.5C14.6989 7.25 14.8897 7.32902 15.0303 7.46967C15.171 7.61032 15.25 7.80109 15.25 8C15.25 8.19891 15.171 8.38968 15.0303 8.53033C14.8897 8.67098 14.6989 8.75 14.5 8.75H12C10.8628 8.75 9.75105 9.08723 8.80547 9.71905C7.85989 10.3509 7.1229 11.2489 6.68769 12.2996C6.25249 13.3502 6.13862 14.5064 6.36048 15.6218C6.58235 16.7372 7.12998 17.7617 7.93414 18.5659C8.73829 19.37 9.76284 19.9177 10.8782 20.1395C11.9936 20.3614 13.1498 20.2475 14.2004 19.8123C15.2511 19.3771 16.1491 18.6401 16.781 17.6945C17.4128 16.7489 17.75 15.6372 17.75 14.5C17.75 14.3011 17.829 14.1103 17.9697 13.9697C18.1103 13.829 18.3011 13.75 18.5 13.75C18.6989 13.75 18.8897 13.829 19.0303 13.9697C19.171 14.1103 19.25 14.3011 19.25 14.5C19.2474 16.422 18.4827 18.2645 17.1236 19.6236C15.7645 20.9827 13.922 21.7474 12 21.75Z" fill="white"/>
<path d="M12.0002 11.7499C11.9016 11.7504 11.804 11.7312 11.713 11.6934C11.6219 11.6556 11.5394 11.6 11.4702 11.5299C11.3297 11.3893 11.2508 11.1987 11.2508 10.9999C11.2508 10.8012 11.3297 10.6105 11.4702 10.4699L13.9402 7.99991L11.4702 5.52991C11.3965 5.46125 11.3374 5.37845 11.2964 5.28645C11.2554 5.19445 11.2333 5.09513 11.2316 4.99443C11.2298 4.89373 11.2483 4.7937 11.286 4.70031C11.3238 4.60692 11.3799 4.52209 11.4511 4.45087C11.5223 4.37965 11.6072 4.32351 11.7006 4.28579C11.7939 4.24807 11.894 4.22954 11.9947 4.23132C12.0954 4.23309 12.1947 4.25514 12.2867 4.29613C12.3787 4.33712 12.4615 4.39622 12.5302 4.46991L15.5302 7.46991C15.6706 7.61053 15.7495 7.80116 15.7495 7.99991C15.7495 8.19866 15.6706 8.38928 15.5302 8.52991L12.5302 11.5299C12.4609 11.6 12.3784 11.6556 12.2873 11.6934C12.1963 11.7312 12.0987 11.7504 12.0002 11.7499Z" fill="white"/>
</g>
<defs>
<clipPath id="clip0_140_1925">
<rect width="24" height="24" fill="white" transform="translate(0 0.5)"/>
</clipPath>
</defs>
</svg>
