<svg width="27" height="27" viewBox="0 0 27 27" fill="none" xmlns="http://www.w3.org/2000/svg">
<path d="M27 13.5C27 20.9561 20.956 27 13.5 27C6.04395 27 0 20.9561 0 13.5C0 6.04395 6.04395 0 13.5 0V2.7C10.9603 2.7002 8.50196 3.5954 6.55684 5.22832C4.61171 6.86124 3.30426 9.12741 2.86421 11.6287C2.42415 14.1299 2.87965 16.7063 4.15066 18.905C5.42167 21.1037 7.42688 22.7842 9.81399 23.6512C12.2011 24.5182 14.8174 24.5162 17.2032 23.6456C19.5889 22.775 21.5916 21.0914 22.8593 18.8907C24.1269 16.6901 24.5785 14.113 24.1346 11.6125C23.6908 9.11188 22.3799 6.8477 20.4322 5.21775L17.55 8.1V0H25.65L22.3465 3.30345C23.8086 4.56947 24.9809 6.13542 25.7839 7.89486C26.5869 9.6543 27.0016 11.566 27 13.5Z" fill="black"/>
</svg>
