<svg width="92" height="92" viewBox="0 0 92 92" fill="none" xmlns="http://www.w3.org/2000/svg">
<path d="M84.3337 45.9998C84.3337 67.1713 67.1718 84.3332 46.0003 84.3332C24.8288 84.3332 7.66699 67.1713 7.66699 45.9998C7.66699 24.8283 24.8288 7.6665 46.0003 7.6665V15.3332C38.7889 15.3337 31.8084 17.8757 26.2852 22.5123C20.762 27.149 17.0495 33.5838 15.7999 40.6862C14.5504 47.7885 15.8438 55.104 19.4528 61.3473C23.0619 67.5907 28.7557 72.3625 35.5339 74.8243C42.3121 77.2861 49.741 77.2804 56.5155 74.8083C63.2899 72.3362 68.9765 67.5557 72.576 61.3069C76.1755 55.0581 77.4578 47.7406 76.1974 40.6402C74.937 33.5397 71.2147 27.1106 65.6845 22.4823L57.5003 30.6665V7.6665H80.5003L71.1202 17.0467C75.2716 20.6415 78.6005 25.0881 80.8806 30.084C83.1606 35.0799 84.3383 40.5082 84.3337 45.9998Z" fill="black"/>
</svg>
