<svg width="24" height="25" viewBox="0 0 24 25" fill="none" xmlns="http://www.w3.org/2000/svg">
<path fill-rule="evenodd" clip-rule="evenodd" d="M12 8.75C11.0054 8.75 10.0516 9.14509 9.34835 9.84835C8.64509 10.5516 8.25 11.5054 8.25 12.5C8.25 13.4946 8.64509 14.4484 9.34835 15.1517C10.0516 15.8549 11.0054 16.25 12 16.25C12.9946 16.25 13.9484 15.8549 14.6517 15.1517C15.3549 14.4484 15.75 13.4946 15.75 12.5C15.75 11.5054 15.3549 10.5516 14.6517 9.84835C13.9484 9.14509 12.9946 8.75 12 8.75ZM9.75 12.5C9.75 11.9033 9.98705 11.331 10.409 10.909C10.831 10.4871 11.4033 10.25 12 10.25C12.5967 10.25 13.169 10.4871 13.591 10.909C14.0129 11.331 14.25 11.9033 14.25 12.5C14.25 13.0967 14.0129 13.669 13.591 14.091C13.169 14.5129 12.5967 14.75 12 14.75C11.4033 14.75 10.831 14.5129 10.409 14.091C9.98705 13.669 9.75 13.0967 9.75 12.5Z" fill="white"/>
<path fill-rule="evenodd" clip-rule="evenodd" d="M11.9748 1.75C11.5298 1.75 11.1588 1.75 10.8548 1.77C10.544 1.78252 10.2375 1.84673 9.94777 1.96C9.61402 2.09809 9.31075 2.30057 9.05526 2.55589C8.79978 2.8112 8.59709 3.11434 8.45877 3.448C8.31377 3.798 8.27477 4.168 8.25877 4.57C8.25699 4.71698 8.21799 4.86112 8.14542 4.98895C8.07285 5.11678 7.96907 5.22414 7.84377 5.301C7.7146 5.37132 7.5697 5.40775 7.42263 5.40687C7.27556 5.406 7.1311 5.36785 7.00277 5.296C6.64677 5.108 6.30678 4.957 5.93078 4.907C5.57272 4.8599 5.20889 4.88379 4.86007 4.9773C4.51125 5.07081 4.18426 5.23212 3.89777 5.452C3.65517 5.64648 3.44665 5.88001 3.28077 6.143C3.11077 6.397 2.92477 6.718 2.70277 7.103L2.67777 7.147C2.45477 7.532 2.26977 7.853 2.13577 8.127C1.99577 8.413 1.88577 8.695 1.84577 9.007C1.75038 9.72999 1.94605 10.4613 2.38977 11.04C2.62077 11.341 2.92177 11.56 3.26177 11.774C3.38841 11.8491 3.49392 11.9551 3.56842 12.082C3.64293 12.209 3.68399 12.3528 3.68777 12.5C3.68399 12.6472 3.64293 12.791 3.56842 12.918C3.49392 13.0449 3.38841 13.1509 3.26177 13.226C2.92177 13.44 2.62177 13.659 2.38977 13.96C2.16989 14.2465 2.00859 14.5735 1.91508 14.9223C1.82157 15.2711 1.79768 15.6349 1.84477 15.993C1.88577 16.305 1.99477 16.587 2.13477 16.873C2.26977 17.147 2.45477 17.468 2.67777 17.853L2.70277 17.897C2.92477 18.282 3.11077 18.603 3.28077 18.857C3.45777 19.12 3.64777 19.357 3.89777 19.547C4.18418 19.7671 4.51114 19.9285 4.85996 20.0222C5.20879 20.1159 5.57265 20.14 5.93078 20.093C6.30678 20.043 6.64677 19.893 7.00277 19.704C7.13098 19.6323 7.27525 19.5943 7.42213 19.5934C7.56901 19.5925 7.71372 19.6289 7.84277 19.699C7.96909 19.7749 8.07378 19.882 8.1468 20.01C8.21982 20.138 8.25872 20.2826 8.25978 20.43C8.27478 20.832 8.31378 21.202 8.45977 21.552C8.59786 21.8857 8.80035 22.189 9.05566 22.4445C9.31098 22.7 9.61412 22.9027 9.94777 23.041C10.2378 23.161 10.5378 23.208 10.8548 23.229C11.1588 23.25 11.5298 23.25 11.9748 23.25H12.0248C12.4698 23.25 12.8408 23.25 13.1448 23.23C13.4628 23.208 13.7618 23.161 14.0518 23.04C14.3855 22.9019 14.6888 22.6994 14.9443 22.4441C15.1998 22.1888 15.4025 21.8857 15.5408 21.552C15.6858 21.202 15.7248 20.832 15.7408 20.43C15.7424 20.2828 15.7813 20.1385 15.8539 20.0105C15.9265 19.8825 16.0303 19.775 16.1558 19.698C16.285 19.6278 16.43 19.5916 16.577 19.5926C16.7241 19.5937 16.8685 19.632 16.9968 19.704C17.3528 19.892 17.6928 20.043 18.0688 20.092C18.7918 20.1874 19.523 19.9917 20.1018 19.548C20.3518 19.356 20.5418 19.12 20.7188 18.857C20.8888 18.603 21.0748 18.282 21.2968 17.897L21.3218 17.853C21.5448 17.468 21.7298 17.147 21.8638 16.873C22.0038 16.587 22.1138 16.304 22.1538 15.993C22.2492 15.27 22.0535 14.5387 21.6098 13.96C21.3788 13.659 21.0778 13.44 20.7378 13.226C20.6111 13.1509 20.5056 13.0449 20.4311 12.918C20.3566 12.791 20.3156 12.6472 20.3118 12.5C20.3118 12.222 20.4638 11.946 20.7378 11.774C21.0778 11.56 21.3778 11.341 21.6098 11.04C21.8297 10.7535 21.991 10.4265 22.0845 10.0777C22.178 9.72888 22.2019 9.36506 22.1548 9.007C22.1077 8.6996 22.0096 8.40219 21.8648 8.127C21.694 7.79478 21.5129 7.46795 21.3218 7.147L21.2968 7.103C21.1141 6.77708 20.9214 6.45692 20.7188 6.143C20.5528 5.88036 20.3443 5.64718 20.1018 5.453C19.8154 5.23294 19.4884 5.07146 19.1396 4.97778C18.7908 4.88409 18.4269 4.86004 18.0688 4.907C17.6928 4.957 17.3528 5.107 16.9968 5.296C16.8686 5.36767 16.7243 5.40572 16.5774 5.4066C16.4305 5.40747 16.2858 5.37114 16.1568 5.301C16.0311 5.22438 15.9269 5.11712 15.854 4.98928C15.7811 4.86143 15.7418 4.71717 15.7398 4.57C15.7248 4.168 15.6858 3.798 15.5398 3.448C15.4017 3.11425 15.1992 2.81097 14.9439 2.55549C14.6886 2.3 14.3854 2.09731 14.0518 1.959C13.7618 1.839 13.4618 1.792 13.1448 1.771C12.8408 1.75 12.4698 1.75 12.0248 1.75H11.9748ZM10.5218 3.345C10.5988 3.313 10.7158 3.284 10.9568 3.267C11.2038 3.25 11.5238 3.25 11.9998 3.25C12.4758 3.25 12.7958 3.25 13.0428 3.267C13.2838 3.284 13.4008 3.313 13.4778 3.345C13.7848 3.472 14.0278 3.715 14.1548 4.022C14.1948 4.118 14.2278 4.269 14.2408 4.626C14.2708 5.418 14.6798 6.181 15.4058 6.6C16.1318 7.019 16.9968 6.992 17.6978 6.622C18.0138 6.455 18.1608 6.408 18.2648 6.395C18.5933 6.35158 18.9257 6.44043 19.1888 6.642C19.2548 6.693 19.3388 6.78 19.4738 6.98C19.6128 7.186 19.7728 7.463 20.0108 7.875C20.2488 8.287 20.4078 8.565 20.5168 8.787C20.6238 9.004 20.6568 9.12 20.6668 9.203C20.7102 9.53157 20.6213 9.86392 20.4198 10.127C20.3558 10.21 20.2418 10.314 19.9398 10.504C19.2678 10.926 18.8118 11.662 18.8118 12.5C18.8118 13.338 19.2678 14.074 19.9398 14.496C20.2418 14.686 20.3558 14.79 20.4198 14.873C20.6218 15.136 20.7098 15.468 20.6668 15.797C20.6568 15.88 20.6228 15.997 20.5168 16.213C20.4078 16.436 20.2488 16.713 20.0108 17.125C19.7728 17.537 19.6118 17.814 19.4738 18.02C19.3388 18.22 19.2548 18.307 19.1888 18.358C18.9257 18.5596 18.5933 18.6484 18.2648 18.605C18.1608 18.592 18.0148 18.545 17.6978 18.378C16.9978 18.008 16.1318 17.98 15.4058 18.399C14.6798 18.818 14.2708 19.582 14.2408 20.374C14.2278 20.731 14.1948 20.882 14.1548 20.978C14.092 21.1298 13.9998 21.2677 13.8837 21.3839C13.7675 21.5001 13.6296 21.5922 13.4778 21.655C13.4008 21.687 13.2838 21.716 13.0428 21.733C12.7958 21.75 12.4758 21.75 11.9998 21.75C11.5238 21.75 11.2038 21.75 10.9568 21.733C10.7158 21.716 10.5988 21.687 10.5218 21.655C10.37 21.5922 10.2321 21.5001 10.1159 21.3839C9.99972 21.2677 9.9076 21.1298 9.84478 20.978C9.80478 20.882 9.77177 20.731 9.75877 20.374C9.72877 19.582 9.31977 18.819 8.59377 18.4C7.86777 17.981 7.00278 18.008 6.30177 18.378C5.98577 18.545 5.83878 18.592 5.73478 18.605C5.40621 18.6484 5.07385 18.5596 4.81077 18.358C4.74477 18.307 4.66077 18.22 4.52577 18.02C4.33766 17.7272 4.15857 17.4288 3.98878 17.125C3.75077 16.713 3.59177 16.435 3.48277 16.213C3.37577 15.996 3.34277 15.88 3.33277 15.797C3.28936 15.4684 3.3782 15.1361 3.57977 14.873C3.64377 14.79 3.75777 14.686 4.05977 14.496C4.73177 14.074 5.18778 13.338 5.18778 12.5C5.18778 11.662 4.73177 10.926 4.05977 10.504C3.75777 10.314 3.64377 10.21 3.57977 10.127C3.3782 9.86392 3.28936 9.53157 3.33277 9.203C3.34277 9.12 3.37677 9.003 3.48277 8.787C3.59177 8.564 3.75077 8.287 3.98878 7.875C4.22677 7.463 4.38777 7.186 4.52577 6.98C4.66077 6.78 4.74477 6.693 4.81077 6.642C5.07385 6.44043 5.40621 6.35158 5.73478 6.395C5.83878 6.408 5.98478 6.455 6.30177 6.622C7.00177 6.992 7.86777 7.02 8.59377 6.6C9.31977 6.181 9.72877 5.418 9.75877 4.626C9.77177 4.269 9.80478 4.118 9.84478 4.022C9.97178 3.715 10.2148 3.472 10.5218 3.345Z" fill="white"/>
</svg>
